<svg width="2000" height="2000" viewBox="0 0 2000 2000" stroke="#FFF" fill="#FFF" xmlns="http://www.w3.org/2000/svg">
  <path fill-rule="evenodd" clip-rule="evenodd" d="M624.326 798.373c-.401 3.133 1.608 6.946 5.624 14.571l474.48 900.786c2.19 4.16 3.29 6.24 4.93 7.54.89.71 1.89 1.26 2.95 1.63 25.32 18.04 116.19 11.19 218.89-18.18 104.38-29.84 187.75-78.79 197.18-108.44.38-.64.69-1.32.92-2.04.64-1.99.41-4.32-.05-8.98l-78.73-793.745v-.001c-.52-5.167-.77-7.751-1.95-9.691a10 10 0 0 0-4.38-3.902c-2.06-.947-4.65-.906-9.85-.825l-790.485 12.393c-8.617.135-12.925.203-15.482 2.058a10 10 0 0 0-4.047 6.826Z" fill="#FE9332"/>
  <path d="M1451.22 787.049c-.57 56.059-184.45 98.937-416.49 96.558-232.036-2.379-413.583-39.999-413.008-96.058.575-56.058 183.054-109.326 415.098-106.947 232.04 2.379 414.98 50.389 414.4 106.447Z" fill="#FF7D0C"/>
  <path fill-rule="evenodd" clip-rule="evenodd" d="M1488.65 305.323c-.96-11.004-10.65-19.151-21.66-18.197-11 .955-19.15 10.65-18.19 21.654L1561.33 1606c.49 2 .67 4.06.54 6.16l.04.41h-.07c-2.62 33.5-81.83 78.87-229.57 121.76-153.57 44.58-245.43 41.93-261.75 15.26-.01.01-.02.01-.03.02l-.29-.55c-.22-.39-.42-.78-.61-1.18L462.465 582.04c-5.102-9.796-17.18-13.602-26.976-8.501-9.797 5.102-13.603 17.18-8.502 26.977L1042.79 1783.01c.98 1.89 2.23 3.56 3.66 4.98 15.26 24.77 147.53 26.65 295.41-17.15 135.85-40.23 241.39-86.61 259.58-124.81 1.3-2.3 2.16-4.89 2.47-7.61.38-2.33.41-4.62.06-6.87-.09-.62-.24-1.23-.43-1.82z"/>
  <path d="M1476.85 317.019v.001c0 .01.02.05.02.157 0 .118 0 .393-.09.859-.18.965-.7 2.731-2.17 5.36-3.04 5.464-9.07 12.798-19.34 21.749-20.47 17.847-53.39 38.367-97.63 60.22-88.1 43.513-216.04 89.86-365.128 129.808-148.953 39.911-286.431 63.505-388.033 69.628-51.01 3.074-91.642 1.653-119.743-3.703-14.111-2.689-23.636-6.115-29.447-9.465-3.739-2.156-4.993-3.694-5.345-4.248.028-.656.345-2.616 2.505-6.352 3.357-5.807 9.893-13.536 20.769-22.921 21.658-18.689 56.136-40.235 101.849-63.078 91.051-45.498 221.908-93.805 370.861-133.717 148.832-39.88 283.242-61.471 381.752-65.644 49.45-2.095 88.52.267 115.43 6.249 13.49 3 22.58 6.626 28.15 10.089 2.69 1.675 4.15 3.06 4.89 3.932.35.422.53.712.61.86.07.142.09.206.09.216ZM449.825 587.158a.4.4 0 0 1 .045.102.3.3 0 0 1-.045-.102Zm.117.371c.014.072.015.11.012.111a.3.3 0 0 1-.012-.111Z" fill="none" stroke-width="50"/>
  <path d="m991.679 1270.36 120.121 8.5c5.69 19.15 8.33 33.09 7.95 41.8l-174.775-17.08-10.154-34.2 134.829-117.44c5 6.79 10.38 19.91 16.16 39.37zm300.371-45.02 96.02-72.67-122.01-14.88q-6.915-23.25-5.85-41.43l174.97 24.46 10.16 34.2-137.14 109.69c-5.08-7.09-10.46-20.21-16.15-39.37Zm-139.44 167.72 34.95-360.94 37.43-8.24-34.95 360.94z" fill="#000"/>
</svg>
