<svg width="1464" height="336" viewBox="0 0 1464 336" fill="#fff" xmlns="http://www.w3.org/2000/svg">
  <path fill-rule="evenodd" clip-rule="evenodd" d="M225.935 19.8125C225.737 17.5371 223.733 15.8525 221.457 16.0499C219.182 16.2473 217.497 18.2519 217.695 20.5273L240.966 288.77C241.062 289.177 241.098 289.593 241.074 290.019L241.083 290.118C241.078 290.117 241.073 290.117 241.068 290.116C240.525 297.044 224.146 306.425 193.599 315.293C161.842 324.512 142.848 323.964 139.474 318.449C139.472 318.45 139.471 318.451 139.469 318.452L139.415 318.349C139.366 318.262 139.32 318.174 139.278 318.085L13.7457 77.0308C12.6907 75.005 10.1934 74.218 8.16762 75.273C6.14188 76.3279 5.35489 78.8253 6.40982 80.851L133.741 325.361C133.944 325.749 134.199 326.092 134.494 326.385C137.634 331.512 164.992 331.904 195.58 322.844C223.625 314.538 245.422 304.966 249.235 297.074C249.528 296.57 249.716 296.001 249.774 295.398C249.844 294.939 249.846 294.487 249.777 294.043C249.769 293.988 249.759 293.935 249.747 293.881C249.732 293.813 249.714 293.746 249.694 293.68L225.935 19.8125Z" fill="#FFF"/>
  <path fill-rule="evenodd" clip-rule="evenodd" d="M47.2106 121.762C47.1277 122.41 47.543 123.199 48.3735 124.775L146.484 311.034C146.937 311.894 147.163 312.324 147.503 312.595C147.688 312.742 147.897 312.856 148.119 312.932C153.36 316.659 172.146 315.242 193.376 309.171C214.964 302.998 232.208 292.874 234.148 286.743C234.225 286.612 234.288 286.473 234.335 286.328C234.469 285.916 234.421 285.434 234.326 284.471L234.326 284.471L218.045 120.344V120.344C217.939 119.276 217.886 118.742 217.643 118.34C217.429 117.987 217.114 117.706 216.738 117.534C216.312 117.338 215.775 117.346 214.701 117.363L51.2487 119.926C49.467 119.953 48.5761 119.967 48.0473 120.351C47.5857 120.686 47.2829 121.197 47.2106 121.762Z" fill="#FE9332"/>
  <path d="M218.191 119.421C218.072 131.012 180.052 139.878 132.072 139.387C84.0919 138.895 46.5526 131.116 46.6715 119.524C46.7903 107.933 84.5222 96.9184 132.502 97.4103C180.482 97.9023 218.309 107.829 218.191 119.421Z" fill="#FF7D0C"/>
  <path d="M223.492 22.23C223.492 22.2308 223.493 22.2327 223.494 22.2364C223.494 22.2414 223.495 22.2496 223.496 22.2628C223.496 22.2872 223.496 22.344 223.478 22.4403C223.441 22.6399 223.332 23.0051 223.029 23.5486C222.401 24.6785 221.154 26.1949 219.03 28.0458C214.797 31.7362 207.991 35.9792 198.842 40.4978C180.625 49.4951 154.171 59.0784 123.343 67.3386C92.5436 75.5913 64.1167 80.4699 43.1081 81.7359C32.5604 82.3715 24.1589 82.0778 18.3483 80.9703C15.4304 80.4142 13.461 79.7059 12.2595 79.0132C11.4863 78.5674 11.2269 78.2493 11.1542 78.1347C11.1599 77.9991 11.2255 77.5939 11.6722 76.8213C12.3663 75.6205 13.7178 74.0225 15.9666 72.0819C20.445 68.2175 27.5741 63.7623 37.0265 59.039C55.8535 49.6311 82.9112 39.6426 113.711 31.3898C144.486 23.1436 172.278 18.6791 192.647 17.8163C202.873 17.3831 210.951 17.8715 216.514 19.1085C219.304 19.7287 221.185 20.4785 222.336 21.1946C222.893 21.5409 223.195 21.8272 223.346 22.0076C223.42 22.0949 223.456 22.1548 223.473 22.1855C223.488 22.2148 223.492 22.228 223.492 22.23ZM11.1296 78.0879C11.1302 78.0878 11.1339 78.0946 11.1389 78.1089C11.1315 78.0952 11.129 78.088 11.1296 78.0879ZM11.1539 78.1646C11.1567 78.1795 11.1569 78.1873 11.1563 78.1875C11.1557 78.1877 11.1543 78.1802 11.1539 78.1646Z" stroke="#FFF" stroke-width="10.3387" fill="none"/>
  <path d="M123.216 219.513L148.054 221.27C149.229 225.23 149.777 228.112 149.697 229.914L113.559 226.382L111.459 219.31L139.339 195.027C140.371 196.431 141.484 199.144 142.679 203.167L123.216 219.513ZM185.325 210.205L205.18 195.178L179.95 192.101C178.998 188.895 178.595 186.04 178.74 183.534L214.921 188.592L217.021 195.664L188.665 218.344C187.614 216.878 186.501 214.165 185.325 210.205Z" fill="black"/>
  <path d="M156.454 244.772L163.681 170.138L171.421 168.433L164.195 243.067L156.454 244.772Z" fill="black"/>
  <path d="m123.216 219.513 24.838 1.757q1.763 5.94 1.643 8.644l-36.138-3.532-2.1-7.072 27.88-24.283q1.548 2.106 3.34 8.14zm62.109-9.308 19.855-15.027-25.23-3.077q-1.428-4.808-1.21-8.567l36.181 5.058 2.1 7.072-28.356 22.68q-1.576-2.199-3.34-8.139m-28.871 34.567 7.227-74.634 7.74-1.705-7.226 74.634zM384.675 267.2q-29.975 0-51.15-12.1-20.9-12.375-31.9-34.65-10.725-22.275-10.725-51.975 0-30.25 11-52.8 11.275-22.55 32.175-34.925 20.9-12.65 50.325-12.65 22.275 0 39.875 7.7 17.6 7.425 28.325 22.275 11 14.575 13.75 36.025H428.4q-3.575-13.475-14.575-21.175-10.725-7.975-28.6-7.975-19.8 0-31.625 9.075-11.55 8.8-16.775 23.1-5.225 14.025-5.225 29.7 0 16.225 5.5 30.8t17.325 23.65q12.1 9.075 31.625 9.075 11.55 0 20.625-3.3 9.075-3.575 14.85-10.175 6.05-6.6 8.25-15.675H469.1q-2.475 21.175-14.3 36.025t-29.975 22.55q-18.15 7.425-40.15 7.425m99.513-2.2V70.3h38.5v66.55q6.326-7.425 14.025-11.55 7.976-4.125 15.95-5.775 8.25-1.925 15.125-1.925 20.35 0 31.9 9.075t16.5 24.475 4.95 33.825V265h-38.5v-74.525q0-6.6-1.375-13.2-1.1-6.6-4.125-12.1-3.024-5.775-8.525-9.075-5.5-3.575-14.575-3.575-8.524 0-14.575 3.575-6.05 3.575-9.9 9.625-3.575 5.775-5.225 12.925a63.4 63.4 0 0 0-1.65 14.3V265zm204.179 1.925q-9.9 0-19.25-2.475-9.075-2.75-16.225-8.25t-11.275-13.75-4.125-19.25q0-14.85 6.05-23.65 6.05-9.075 16.225-13.75t23.375-6.325q13.476-1.65 27.775-1.65h20.9q0-7.976-3.025-14.025-2.75-6.325-8.525-9.625-5.775-3.575-14.85-3.575-5.775 0-11.275 1.65-5.224 1.375-8.8 4.125-3.574 2.75-4.675 7.15h-39.05q1.65-12.1 7.7-20.625 6.05-8.8 15.125-14.3t19.8-7.975q11-2.75 22.55-2.75 31.626 0 46.75 18.15 15.125 17.875 15.125 50.875V265h-34.65l-.55-18.7q-6.875 9.625-15.675 14.025-8.524 4.4-16.5 5.5-7.975 1.1-12.925 1.1m8.8-30.525q9.626 0 17.6-3.85 7.976-3.85 12.65-10.45t4.675-14.85v-3.575h-26.4q-5.775 0-11.275.55-5.224.55-9.625 2.2-4.125 1.375-6.6 4.675t-2.475 8.8 2.75 9.35q3.025 3.575 7.975 5.5 4.95 1.65 10.725 1.65m93.324 28.6V120.075h38.5V265zm19.25-159.5q-10.725 0-17.325-6.325-6.6-6.6-6.6-16.775 0-10.725 6.875-17.325 6.876-6.6 17.325-6.6 9.625 0 16.5 6.6 7.15 6.325 7.15 17.05 0 10.45-6.875 17.05-6.6 6.325-17.05 6.325M856.76 265V70.3h73.425q30.525 0 51.975 11.55c14.483 7.7 25.48 18.792 33 33.275q11.55 21.725 11.55 53.075 0 30.8-11.28 52.525-10.995 21.45-32.445 33Q961.535 265 930.46 265zm39.325-36.3h34.1q20.35 0 32.725-7.7t18.15-21.45 5.775-31.625q0-17.325-5.775-31.075-5.5-14.025-18.15-22-12.375-7.975-33.55-7.975h-33.275zm215.455 38.225c-14.67 0-27.5-2.933-38.5-8.8-11-6.05-19.53-14.575-25.58-25.575-6.05-11.183-9.07-24.383-9.07-39.6 0-15.583 3.02-28.967 9.07-40.15 6.24-11.367 14.85-20.075 25.85-26.125q16.5-9.075 37.95-9.075c14.67 0 27.41 3.117 38.23 9.35s19.25 14.942 25.3 26.125 9.07 24.567 9.07 40.15c0 15.217-3.02 28.417-9.07 39.6-5.87 11-14.21 19.433-25.03 25.3q-15.945 8.8-38.22 8.8m-.55-35.2c8.43 0 15.22-1.833 20.35-5.5s8.8-8.433 11-14.3q3.57-9.075 3.57-18.975t-3.57-18.975c-2.2-6.05-5.87-11-11-14.85-4.95-4.033-11.73-6.05-20.35-6.05-8.25 0-14.94 2.017-20.08 6.05-5.13 3.85-8.89 8.8-11.27 14.85q-3.3 9.075-3.3 18.975 0 10.175 3.3 18.975c2.38 5.867 6.14 10.633 11.27 14.3 5.14 3.667 11.83 5.5 20.08 5.5m154.17 35.2q-22.275 0-38.22-9.075c-10.45-6.05-18.43-14.575-23.93-25.575q-8.25-16.775-8.25-39.325c0-15.217 2.84-28.417 8.53-39.6 5.68-11.367 13.84-20.167 24.47-26.4 10.82-6.233 23.84-9.35 39.05-9.35q17.61 0 31.35 6.325c9.17 4.217 16.5 10.267 22 18.15q8.535 11.825 9.9 29.15h-37.67q-2.475-9.626-9.63-14.025-6.87-4.4-16.5-4.4-12.375 0-19.8 6.05c-4.76 4.033-8.25 9.167-10.45 15.4-2.01 6.233-3.02 12.467-3.02 18.7q0 10.175 3.3 19.25c2.2 5.867 5.68 10.725 10.45 14.575 4.95 3.667 11.36 5.5 19.25 5.5 6.6 0 12.37-1.467 17.32-4.4q7.425-4.675 9.63-14.3h38.5c-.92 11.917-4.49 21.817-10.73 29.7-6.23 7.883-14.21 13.842-23.92 17.875-9.54 3.85-20.08 5.775-31.63 5.775m137.92 0c-6.78 0-13.75-.733-20.9-2.2q-10.725-2.2-19.8-7.425c-6.05-3.667-11.18-8.525-15.4-14.575q-6.33-9.35-8.25-23.1h39.05c1.1 3.3 3.03 6.142 5.78 8.525q4.395 3.575 9.9 5.225 5.775 1.65 11.55 1.65c2.56 0 5.13-.183 7.7-.55 2.56-.367 4.95-1.1 7.15-2.2q3.3-1.65 5.22-4.125c1.28-1.833 1.93-4.125 1.93-6.875 0-2.933-.92-5.225-2.75-6.875-1.84-1.65-4.4-2.933-7.7-3.85q-4.95-1.65-11.28-3.025c-7.52-1.65-15.58-3.483-24.2-5.5s-16.04-4.95-22.27-8.8a44 44 0 0 1-6.88-6.05 29 29 0 0 1-4.95-7.425 47 47 0 0 1-3.02-8.525c-.74-3.117-1.1-6.417-1.1-9.9q0-11.825 4.95-20.075c3.48-5.683 8.06-10.267 13.75-13.75 5.68-3.483 12-5.958 18.97-7.425q10.455-2.475 21.45-2.475c9.9 0 19.07 1.65 27.5 4.95 8.43 3.117 15.4 8.067 20.9 14.85 5.5 6.6 8.89 15.217 10.18 25.85h-36.85c-.74-4.033-3.21-7.242-7.43-9.625-4.22-2.567-9.44-3.85-15.67-3.85-2.2 0-4.59.183-7.15.55q-3.585.55-6.6 1.925-3.03 1.375-4.95 3.85c-1.29 1.467-1.93 3.483-1.93 6.05q0 3.025 1.65 5.5c1.28 1.65 3.03 3.025 5.23 4.125q3.57 1.65 8.52 3.025a680 680 0 0 0 18.7 4.125c6.42 1.1 12.1 2.292 17.05 3.575q9.075 1.925 16.5 6.325c5.13 2.933 9.26 6.967 12.38 12.1q4.95 7.425 4.95 19.525c0 9.167-1.84 16.775-5.5 22.825q-5.505 8.8-14.85 14.025c-6.05 3.483-12.75 5.958-20.08 7.425a106.5 106.5 0 0 1-21.45 2.2" />
  <circle cx="810.5" cy="82.5" r="24.5" fill="#FE9332"/>
</svg>
